PathFileType	4	(X/Y/Z)	data/andrienko/jump_jo 3.trc
DataRate	CameraRate	NumFrames	NumMarkers	Units	OrigDataRate	OrigDataStartFrame	OrigNumFrames
400	400	6	71	mm	400	58	456
Frame#	Time	r_asis			l_asis			r_psis			sacrum			l_psis			r_illiac			r_troch			l_illiac			l_troch			r_thigh1			r_thigh2			r_thigh3			r_thigh4			rl_knee			rm_knee			r_shank1			r_shank2			r_shank3			r_shank4			r_heel			rl_ankle			rm_ankle			r_metatarsal5			r_metatarsal1			l_thigh1			l_thigh2			l_thigh3			l_thigh4			ll_knee			lm_knee			l_shank1			l_shank2			l_shank3			l_shank4			l_heel			ll_ankle			lm_ankle			l_metatarsal5			l_metatarsal1			back_down			neck			back_right			back_left			head_up			head_front			head_left			head_right			r_shoulder			r_humerus1			r_humerus2			r_humerus3			rl_elbow			rm_elbow			r_radius1			r_radius2			r_radius3			rl_wrist			rm_wrist			r_hand			l_shoulder			l_humerus1			l_humerus2			l_humerus3			ll_elbow			lm_elbow			l_radius1			l_radius2			l_radius3			ll_wrist			lm_wrist			l_hand		
		X1	Y1	Z1	X2	Y2	Z2	X3	Y3	Z3	X4	Y4	Z4	X5	Y5	Z5	X6	Y6	Z6	X7	Y7	Z7	X8	Y8	Z8	X9	Y9	Z9	X10	Y10	Z10	X11	Y11	Z11	X12	Y12	Z12	X13	Y13	Z13	X14	Y14	Z14	X15	Y15	Z15	X16	Y16	Z16	X17	Y17	Z17	X18	Y18	Z18	X19	Y19	Z19	X20	Y20	Z20	X21	Y21	Z21	X22	Y22	Z22	X23	Y23	Z23	X24	Y24	Z24	X25	Y25	Z25	X26	Y26	Z26	X27	Y27	Z27	X28	Y28	Z28	X29	Y29	Z29	X30	Y30	Z30	X31	Y31	Z31	X32	Y32	Z32	X33	Y33	Z33	X34	Y34	Z34	X35	Y35	Z35	X36	Y36	Z36	X37	Y37	Z37	X38	Y38	Z38	X39	Y39	Z39	X40	Y40	Z40	X41	Y41	Z41	X42	Y42	Z42	X43	Y43	Z43	X44	Y44	Z44	X45	Y45	Z45	X46	Y46	Z46	X47	Y47	Z47	X48	Y48	Z48	X49	Y49	Z49	X50	Y50	Z50	X51	Y51	Z51	X52	Y52	Z52	X53	Y53	Z53	X54	Y54	Z54	X55	Y55	Z55	X56	Y56	Z56	X57	Y57	Z57	X58	Y58	Z58	X59	Y59	Z59	X60	Y60	Z60	X61	Y61	Z61	X62	Y62	Z62	X63	Y63	Z63	X64	Y64	Z64	X65	Y65	Z65	X66	Y66	Z66	X67	Y67	Z67	X68	Y68	Z68	X69	Y69	Z69	X70	Y70	Z70	X71	Y71	Z71
58	0.1425	-307.777	951.897	472.377	-325.715	957.220	263.062	-491.744	1005.876	472.689	-499.614	1039.724	382.180	-510.420	1015.256	305.526	-358.205	1013.735	531.611	-359.001	830.340	567.339	-379.606	1013.993	214.643	-386.146	832.179	176.008	-353.810	749.062	571.187	-281.347	762.041	546.950	-270.693	634.071	551.753	-330.004	628.311	567.886	-295.852	491.239	559.773	-299.464	463.112	422.802	-376.922	361.700	582.668	-301.488	339.791	571.608	-338.554	237.560	568.226	-397.169	254.513	580.382	-494.323	77.839	519.088	-428.600	94.294	567.192	-404.194	87.987	468.265	-286.259	36.157	576.898	-270.275	36.441	480.449	-398.815	709.511	180.562	-324.869	732.279	180.545	-290.245	613.979	189.959	-353.417	594.170	188.002	-293.033	498.332	187.814	-302.056	468.837	319.604	-400.637	362.727	169.026	-332.227	343.742	166.594	-362.274	242.730	175.206	-420.587	253.617	177.143	-501.137	66.592	234.549	-431.774	92.525	185.420	-413.177	100.806	283.162	-284.422	31.853	173.763	-261.767	38.615	262.767	-500.589	1115.895	380.683	-407.342	1463.013	374.703	-489.375	1339.856	481.202	-490.047	1345.298	283.963	-225.120	1690.289	373.205	-122.508	1577.209	372.975	-221.081	1582.032	277.137	-231.098	1595.835	465.379	-329.268	1441.960	540.818	-276.350	1287.414	631.105	-371.248	1354.045	694.328	-332.518	1259.683	710.946	-354.829	1172.902	776.902	-444.208	1184.726	739.541	-315.297	1104.499	665.068	-361.228	1055.057	766.760	-340.223	1009.465	677.086	-394.498	984.120	597.226	-354.573	935.969	663.895	-326.816	948.113	594.074	-335.821	1452.015	217.156	-284.770	1288.537	108.612	-383.377	1356.123	52.356	-346.173	1260.346	28.578	-356.365	1198.678	-13.607	-460.701	1196.211	17.655	-390.217	1126.901	123.306	-328.311	1079.010	17.287	-364.306	1029.693	98.321	-360.025	963.739	92.601	-414.891	1009.236	145.337	-359.727	981.813	154.844
59	0.1450	-309.408	950.804	472.342	-327.463	956.310	263.166	-492.842	1005.668	472.657	-500.616	1039.448	382.300	-511.558	1014.886	305.606	-359.360	1013.037	531.683	-360.066	829.462	567.200	-381.035	1013.494	214.745	-387.264	831.262	176.116	-354.176	747.944	570.925	-281.827	761.453	546.610	-270.124	633.786	551.409	-329.298	627.489	567.484	-294.318	490.783	559.398	-297.740	462.636	422.409	-375.589	361.717	582.404	-300.374	339.424	571.326	-337.840	237.393	567.991	-396.343	254.519	580.232	-494.293	77.880	519.072	-428.491	94.344	567.158	-404.124	87.994	468.218	-286.219	36.239	576.837	-270.250	36.472	480.402	-398.749	708.284	180.747	-324.907	731.691	180.798	-289.336	613.721	190.151	-352.264	593.410	188.152	-291.286	497.929	188.091	-300.075	468.396	319.753	-399.308	362.768	169.209	-331.029	343.453	166.756	-361.407	242.592	175.357	-419.635	253.769	177.230	-500.992	66.782	234.630	-431.568	92.682	185.488	-412.949	100.843	283.245	-284.376	31.866	173.827	-261.687	38.606	262.805	-501.328	1115.839	380.740	-405.306	1462.068	374.930	-488.201	1339.851	481.339	-488.814	1345.459	284.110	-223.647	1688.837	373.318	-120.958	1575.733	372.738	-219.666	1580.613	277.058	-229.533	1594.497	465.420	-327.591	1440.725	540.734	-275.466	1286.087	631.237	-370.013	1353.396	694.400	-331.816	1258.529	710.999	-354.814	1172.055	777.077	-444.119	1184.511	739.729	-315.779	1103.518	665.154	-361.919	1054.180	766.785	-341.271	1008.639	677.173	-395.855	983.617	597.310	-356.036	935.284	663.834	-328.229	947.458	593.994	-334.209	1450.936	217.516	-284.100	1287.456	108.683	-382.391	1355.441	52.471	-345.879	1259.414	28.828	-356.173	1197.934	-13.501	-460.665	1196.141	17.693	-390.751	1126.386	123.305	-329.187	1077.809	17.571	-365.226	1029.022	98.462	-361.625	962.967	92.767	-416.225	1008.886	145.426	-361.172	981.125	154.970
60	0.1475	-311.024	949.771	472.321	-329.219	955.376	263.268	-494.457	1005.565	472.796	-501.643	1039.199	382.448	-512.768	1014.490	305.838	-360.410	1012.222	531.618	-361.091	828.573	567.074	-382.586	1012.901	214.835	-388.385	830.307	176.245	-354.541	746.938	570.645	-282.402	761.109	546.344	-269.526	633.447	551.055	-328.669	626.642	567.134	-292.781	490.291	558.999	-295.916	462.277	422.018	-374.341	361.573	582.101	-299.193	338.927	570.962	-337.071	237.044	567.706	-395.495	254.603	580.128	-494.244	77.939	519.056	-428.427	94.435	567.197	-404.013	88.007	468.170	-286.202	36.271	576.819	-270.226	36.490	480.370	-398.407	707.360	180.618	-325.012	731.231	181.045	-288.481	613.430	190.359	-351.220	592.570	188.140	-289.610	497.593	188.344	-298.136	467.996	319.824	-398.138	362.723	169.420	-329.818	343.225	166.922	-360.598	242.567	175.604	-418.693	253.690	177.390	-500.897	67.032	234.741	-431.407	92.790	185.556	-412.775	100.877	283.327	-284.327	31.856	173.866	-261.593	38.600	262.846	-501.983	1115.758	380.778	-403.866	1461.222	375.009	-487.035	1339.738	481.457	-487.706	1345.446	284.327	-222.068	1687.266	373.381	-119.306	1574.124	372.665	-218.094	1579.216	277.160	-227.790	1592.780	465.420	-325.832	1439.421	540.640	-274.662	1284.656	631.304	-368.643	1352.591	694.387	-331.209	1257.560	711.138	-354.795	1171.235	777.269	-444.020	1184.255	739.962	-316.311	1102.548	665.271	-362.679	1053.316	766.906	-342.328	1007.705	677.232	-397.235	983.083	597.364	-357.367	934.648	663.584	-329.738	946.802	593.932	-332.541	1449.915	217.912	-283.408	1286.286	108.735	-381.364	1354.869	52.595	-345.962	1258.541	29.066	-355.993	1197.038	-13.413	-460.606	1196.024	17.685	-391.320	1125.798	123.328	-329.903	1076.640	17.722	-366.324	1028.305	98.664	-363.162	962.163	92.923	-417.546	1008.386	145.512	-362.678	980.395	155.077
61	0.1500	-312.638	948.566	472.343	-330.925	954.414	263.349	-495.442	1005.002	472.771	-502.659	1039.013	382.534	-513.994	1014.169	306.010	-361.554	1011.368	531.619	-362.145	827.546	566.943	-384.065	1012.287	214.927	-389.589	829.347	176.375	-354.918	745.855	570.308	-282.878	760.689	546.043	-268.932	633.096	550.618	-328.003	625.782	566.784	-291.198	489.832	558.663	-294.223	461.843	421.684	-373.122	361.478	581.931	-298.032	338.535	570.636	-336.341	236.757	567.462	-394.690	254.582	579.949	-494.269	78.168	518.971	-428.332	94.562	567.206	-403.930	88.050	468.105	-286.164	36.310	576.802	-270.196	36.510	480.339	-398.656	705.942	180.929	-325.171	730.750	181.271	-287.662	613.121	190.540	-350.102	591.919	188.166	-287.993	497.341	188.533	-296.127	467.560	319.869	-396.927	362.722	169.612	-328.684	342.996	167.033	-359.855	242.418	175.728	-417.855	253.761	177.482	-500.774	67.201	234.825	-431.286	92.869	185.597	-412.586	100.915	283.420	-284.294	31.857	173.906	-261.516	38.580	262.857	-502.638	1115.655	380.807	-401.738	1460.124	375.228	-485.767	1339.597	481.621	-486.577	1345.464	284.524	-220.476	1685.517	373.483	-117.716	1572.514	372.586	-216.605	1577.508	277.108	-226.145	1591.195	465.456	-324.033	1438.027	540.545	-273.745	1283.084	631.399	-367.299	1351.723	694.418	-330.563	1256.568	711.322	-354.802	1170.368	777.460	-443.937	1184.056	740.144	-316.827	1101.410	665.418	-363.397	1052.465	767.008	-343.454	1006.756	677.302	-398.594	982.493	597.402	-359.019	933.703	663.780	-331.153	946.085	593.852	-330.859	1448.608	218.211	-282.638	1284.911	108.801	-380.253	1354.005	52.698	-345.448	1257.651	29.172	-355.964	1196.234	-13.323	-460.561	1195.827	17.682	-391.948	1125.158	123.359	-330.679	1075.560	17.912	-367.360	1027.529	98.794	-364.040	961.593	93.053	-419.674	1007.618	145.473	-364.155	979.649	155.223
62	0.1525	-314.289	947.397	472.334	-332.714	953.416	263.403	-496.888	1004.740	472.842	-503.786	1038.763	382.619	-515.017	1013.498	306.145	-362.700	1010.524	531.597	-363.007	826.683	566.970	-385.688	1011.605	215.032	-390.766	828.326	176.527	-355.129	744.716	569.754	-283.379	760.119	545.772	-268.341	632.776	550.260	-327.363	624.881	566.489	-289.622	489.322	558.319	-292.504	461.289	421.341	-371.759	361.462	581.671	-296.925	338.099	570.310	-335.592	236.465	567.213	-393.948	254.615	579.783	-494.216	78.227	518.953	-428.224	94.638	567.209	-403.803	88.095	468.041	-286.172	36.361	576.760	-270.162	36.551	480.309	-398.520	704.886	180.897	-325.379	730.046	181.507	-286.898	612.903	190.653	-349.168	591.175	188.148	-286.446	496.916	188.673	-294.264	467.209	319.899	-395.841	362.737	169.762	-327.675	342.739	167.170	-359.077	242.154	175.741	-417.109	253.865	177.585	-500.696	67.355	234.904	-431.156	92.976	185.633	-412.397	100.941	283.490	-284.259	31.859	173.939	-261.452	38.577	262.861	-503.270	1115.494	380.809	-400.022	1458.952	375.211	-484.504	1339.444	481.758	-485.626	1345.576	284.645	-218.810	1683.763	373.540	-116.044	1570.653	372.505	-215.015	1575.851	277.142	-224.351	1589.235	465.468	-322.200	1436.530	540.438	-272.923	1281.341	631.477	-365.947	1350.951	694.448	-329.879	1255.410	711.475	-354.814	1169.437	777.684	-443.873	1183.803	740.365	-317.418	1100.318	665.550	-364.183	1051.603	767.186	-344.574	1005.790	677.338	-400.024	981.855	597.486	-360.647	932.811	663.785	-332.591	945.274	593.766	-329.131	1447.390	218.661	-282.021	1283.547	108.906	-379.124	1353.281	52.852	-344.921	1256.640	29.236	-355.810	1195.219	-13.259	-460.527	1195.607	17.746	-392.466	1124.467	123.338	-331.314	1074.548	17.938	-368.507	1026.636	98.928	-365.495	960.741	93.234	-421.096	1007.051	145.523	-365.800	978.797	155.383
63	0.1550	-316.368	946.029	472.285	-334.464	952.273	263.463	-498.172	1004.388	472.798	-504.840	1038.449	382.671	-516.237	1013.165	306.534	-363.914	1009.591	531.629	-364.118	825.564	566.812	-387.154	1010.883	215.132	-391.942	827.290	176.645	-355.685	743.343	569.198	-283.976	759.844	545.561	-267.803	632.444	549.936	-326.768	623.985	566.213	-287.994	488.712	557.993	-290.580	460.833	420.984	-370.582	361.352	581.424	-295.852	337.639	570.014	-334.871	236.250	567.009	-393.117	254.609	579.668	-494.185	78.393	518.901	-428.124	94.742	567.170	-403.681	88.120	467.998	-286.140	36.387	576.736	-270.140	36.579	480.262	-398.759	703.534	181.137	-325.553	729.424	181.620	-286.255	612.660	190.710	-348.434	590.320	188.191	-284.991	496.721	188.751	-292.190	466.786	319.897	-394.739	362.751	169.951	-326.665	342.519	167.261	-358.447	241.960	175.847	-416.369	253.834	177.797	-500.598	67.488	234.961	-431.027	93.055	185.669	-412.270	100.978	283.565	-284.242	31.849	173.966	-261.401	38.563	262.870	-504.066	1115.317	380.872	-398.189	1457.843	375.342	-483.219	1339.186	481.888	-484.440	1345.424	284.823	-217.112	1681.910	373.631	-114.423	1568.969	372.585	-213.363	1574.045	277.191	-222.529	1587.415	465.488	-320.353	1434.965	540.355	-272.041	1279.674	631.607	-364.331	1349.797	694.351	-329.213	1254.269	711.610	-354.769	1168.362	777.854	-443.789	1183.583	740.627	-317.955	1099.084	665.683	-365.037	1050.672	767.291	-345.635	1004.858	677.402	-401.377	981.286	597.564	-362.201	932.035	663.784	-334.239	944.432	593.819	-327.337	1445.972	218.915	-281.225	1281.955	108.969	-377.921	1352.381	52.972	-344.195	1255.719	29.052	-355.768	1194.217	-13.165	-460.536	1195.379	17.802	-393.101	1123.714	123.328	-332.237	1073.167	18.183	-369.655	1025.709	99.045	-367.122	959.819	93.408	-422.472	1006.414	145.569	-367.360	977.938	155.571
